<svg width="25" height="55" viewBox="0 0 25 55" fill="none" xmlns="http://www.w3.org/2000/svg">
<g opacity="0.5">
<path d="M8.5 24C9.32843 24 10 23.3284 10 22.5C10 21.6716 9.32843 21 8.5 21C7.67157 21 7 21.6716 7 22.5C7 23.3284 7.67157 24 8.5 24Z" fill="white" stroke="white" stroke-width="2" stroke-linecap="round" stroke-linejoin="round"/>
<path d="M20.5 24C21.3284 24 22 23.3284 22 22.5C22 21.6716 21.3284 21 20.5 21C19.6716 21 19 21.6716 19 22.5C19 23.3284 19.6716 24 20.5 24Z" fill="white" stroke="white" stroke-width="2" stroke-linecap="round" stroke-linejoin="round"/>
<path fill-rule="evenodd" clip-rule="evenodd" d="M0 0.923057C0 0.413266 0.404562 0 0.903614 0H5.12048C5.55117 0 5.922 0.310503 6.00652 0.7419L6.91616 5.3845H24.0964C24.3657 5.3845 24.6209 5.5072 24.7926 5.71916C24.9643 5.93111 25.0344 6.21024 24.984 6.48047L23.296 15.5226C23.1582 16.2309 22.781 16.8671 22.2304 17.3199C21.6821 17.7707 20.9968 18.0111 20.2933 17.9996H10.0621C9.35864 18.0111 8.67328 17.7707 8.12506 17.3199C7.5746 16.8673 7.19747 16.2313 7.05963 15.5233L5.29769 6.53081C5.29111 6.50372 5.28569 6.47616 5.2815 6.44819L4.3798 1.84611H0.903614C0.404562 1.84611 0 1.43285 0 0.923057Z" fill="white"/>
<path d="M10.251 42.0515L11.0159 42.8309C10.2846 43.668 9.38018 44.0866 8.30252 44.0866C7.23448 44.0866 6.34444 43.745 5.63241 43.0619C4.93001 42.3691 4.57881 41.4983 4.57881 40.4495C4.57881 39.3911 4.93963 38.5155 5.66128 37.8227C6.38293 37.1203 7.29221 36.7691 8.38912 36.7691C9.46678 36.7691 10.3761 37.1732 11.117 37.9814L10.3664 38.8041C10.0297 38.477 9.71214 38.2509 9.41386 38.1258C9.11558 38.0007 8.76437 37.9381 8.36025 37.9381C7.6386 37.9381 7.03241 38.1691 6.54169 38.6309C6.06059 39.0928 5.82004 39.6797 5.82004 40.3918C5.82004 41.0942 6.06059 41.6907 6.54169 42.1814C7.02279 42.6722 7.5953 42.9175 8.25922 42.9175C8.66334 42.9175 9.00973 42.8502 9.29839 42.7155C9.59668 42.5808 9.9142 42.3595 10.251 42.0515ZM16.4237 44H15.399V43.2784C14.9468 43.8172 14.3502 44.0866 13.6093 44.0866C13.0416 44.0866 12.5749 43.9278 12.2093 43.6103C11.8533 43.2832 11.6753 42.8598 11.6753 42.3402C11.6753 41.8206 11.8677 41.4261 12.2526 41.1567C12.6375 40.8873 13.1667 40.7526 13.8402 40.7526H15.3124V40.5505C15.3124 39.8385 14.9131 39.4825 14.1145 39.4825C13.6141 39.4825 13.0945 39.6653 12.5557 40.0309L12.0505 39.3237C12.7145 38.8041 13.4553 38.5443 14.2732 38.5443C14.9371 38.5443 15.4615 38.7127 15.8464 39.0495C16.2313 39.3766 16.4237 39.8722 16.4237 40.5361V44ZM15.298 41.5464H14.0279C13.21 41.5464 12.801 41.8014 12.801 42.3113C12.801 42.5711 12.9021 42.7732 13.1041 42.9175C13.3062 43.0522 13.5901 43.1196 13.9557 43.1196C14.3309 43.1196 14.6485 43.0186 14.9083 42.8165C15.1681 42.6048 15.298 42.3306 15.298 41.9938V41.5464ZM18.8988 41.6907V44H17.773V38.6309H18.8988V39.699C19.0816 39.3622 19.3269 39.088 19.6348 38.8763C19.9524 38.6646 20.2843 38.554 20.6307 38.5443L20.6452 39.6845H20.5874C20.039 39.6845 19.6204 39.8625 19.3318 40.2186C19.0431 40.5746 18.8988 41.0653 18.8988 41.6907ZM22.9244 39.5402V42.268C22.9244 42.5278 22.9918 42.7347 23.1265 42.8887C23.2708 43.033 23.4633 43.1052 23.7038 43.1052C23.9251 43.1052 24.156 42.9849 24.3966 42.7443L24.8584 43.5526C24.4543 43.9086 24.0165 44.0866 23.545 44.0866C23.0543 44.0866 22.6406 43.9182 22.3038 43.5814C21.967 43.2351 21.7986 42.7876 21.7986 42.2392V39.5402H21.1203V38.6309H21.7986V36.9423H22.9244V38.6309H24.3389V39.5402H22.9244Z" fill="white"/>
</g>
</svg>
