<svg width="15" height="12" viewBox="0 0 15 12" fill="none" xmlns="http://www.w3.org/2000/svg">
<g clip-path="url(#clip0_4_22)">
<path d="M5 11C5.27614 11 5.5 10.7761 5.5 10.5C5.5 10.2239 5.27614 10 5 10C4.72386 10 4.5 10.2239 4.5 10.5C4.5 10.7761 4.72386 11 5 11Z" fill="#E8BE13" stroke="#E8BE13" stroke-width="2" stroke-linecap="round" stroke-linejoin="round"/>
<path d="M10.5 11C10.7761 11 11 10.7761 11 10.5C11 10.2239 10.7761 10 10.5 10C10.2239 10 10 10.2239 10 10.5C10 10.7761 10.2239 11 10.5 11Z" fill="#E8BE13" stroke="#E8BE13" stroke-width="2" stroke-linecap="round" stroke-linejoin="round"/>
<path fill-rule="evenodd" clip-rule="evenodd" d="M0.571428 0.499998C0.571428 0.263304 0.763306 0.0714264 1 0.0714264H3C3.20427 0.0714264 3.38015 0.215592 3.42024 0.415888L3.85167 2.57143H12C12.1277 2.57143 12.2488 2.6284 12.3302 2.72681C12.4116 2.82522 12.4449 2.95482 12.421 3.08028L11.6204 7.27849C11.5551 7.60735 11.3761 7.90275 11.115 8.11299C10.855 8.3223 10.5299 8.43392 10.1962 8.42857H5.34375C5.0101 8.43392 4.68504 8.3223 4.42503 8.11299C4.16395 7.90283 3.98509 7.60756 3.91971 7.27885L3.08405 3.10366C3.08092 3.09108 3.07836 3.07828 3.07637 3.06529L2.64871 0.928569H1C0.763306 0.928569 0.571428 0.736691 0.571428 0.499998Z" fill="#E8BE13"/>
</g>
<defs>
<clipPath id="clip0_4_22">
<rect width="12" height="12" fill="white" transform="translate(0.5)"/>
</clipPath>
</defs>
</svg>
