<svg width="39" height="55" viewBox="0 0 39 55" fill="none" xmlns="http://www.w3.org/2000/svg">
<path d="M33.1825 0.00303046C30.2331 0.176579 24.371 0.808272 20.7521 3.10514C20.5024 3.26362 20.3609 3.54542 20.3609 3.84007V24.1452C20.3609 24.7897 21.0406 25.1971 21.6138 24.898C25.3371 22.9549 30.7218 22.4248 33.3843 22.2797C34.2933 22.23 35 21.4745 35 20.5688V1.71619C35.0005 0.727915 34.1739 -0.055005 33.1825 0.00303046ZM18.2479 3.10514C14.6295 0.808272 8.76741 0.177137 5.81805 0.00303046C4.82668 -0.055005 4 0.727915 4 1.71619V20.5693C4 21.4756 4.70666 22.2312 5.61569 22.2803C8.27926 22.4254 13.6667 22.956 17.39 24.9002C17.9615 25.1988 18.6391 24.792 18.6391 24.1491V3.83002C18.6391 3.53482 18.4981 3.26418 18.2479 3.10514Z" fill="#E8BE13"/>
<path d="M6.66956 42.0515L7.43451 42.8309C6.70324 43.668 5.79877 44.0866 4.72111 44.0866C3.65307 44.0866 2.76304 43.745 2.05101 43.0619C1.3486 42.3691 0.997399 41.4983 0.997399 40.4495C0.997399 39.3911 1.35822 38.5155 2.07987 37.8227C2.80152 37.1203 3.7108 36.7691 4.80771 36.7691C5.88537 36.7691 6.79465 37.1732 7.53554 37.9814L6.78503 38.8041C6.44826 38.477 6.13073 38.2509 5.83245 38.1258C5.53417 38.0007 5.18297 37.9381 4.77884 37.9381C4.05719 37.9381 3.45101 38.1691 2.96029 38.6309C2.47919 39.0928 2.23864 39.6797 2.23864 40.3918C2.23864 41.0942 2.47919 41.6907 2.96029 42.1814C3.44139 42.6722 4.01389 42.9175 4.67781 42.9175C5.08194 42.9175 5.42833 42.8502 5.71699 42.7155C6.01527 42.5808 6.33279 42.3595 6.66956 42.0515ZM12.8423 44H11.8176V43.2784C11.3653 43.8172 10.7688 44.0866 10.0279 44.0866C9.46019 44.0866 8.99353 43.9278 8.62789 43.6103C8.27188 43.2832 8.09387 42.8598 8.09387 42.3402C8.09387 41.8206 8.28631 41.4261 8.67119 41.1567C9.05607 40.8873 9.58528 40.7526 10.2588 40.7526H11.731V40.5505C11.731 39.8385 11.3317 39.4825 10.533 39.4825C10.0327 39.4825 9.51311 39.6653 8.97428 40.0309L8.46913 39.3237C9.13304 38.8041 9.87394 38.5443 10.6918 38.5443C11.3557 38.5443 11.8801 38.7127 12.265 39.0495C12.6499 39.3766 12.8423 39.8722 12.8423 40.5361V44ZM11.7165 41.5464H10.4464C9.62858 41.5464 9.21964 41.8014 9.21964 42.3113C9.21964 42.5711 9.32067 42.7732 9.52273 42.9175C9.7248 43.0522 10.0086 43.1196 10.3743 43.1196C10.7495 43.1196 11.0671 43.0186 11.3269 42.8165C11.5867 42.6048 11.7165 42.3306 11.7165 41.9938V41.5464ZM15.5772 39.5402V42.268C15.5772 42.5278 15.6445 42.7347 15.7792 42.8887C15.9235 43.033 16.116 43.1052 16.3565 43.1052C16.5778 43.1052 16.8088 42.9849 17.0493 42.7443L17.5112 43.5526C17.1071 43.9086 16.6692 44.0866 16.1978 44.0866C15.7071 44.0866 15.2933 43.9182 14.9565 43.5814C14.6198 43.2351 14.4514 42.7876 14.4514 42.2392V39.5402H13.773V38.6309H14.4514V36.9423H15.5772V38.6309H16.9916V39.5402H15.5772ZM22.5205 44H21.4958V43.2784C21.0436 43.8172 20.447 44.0866 19.7061 44.0866C19.1384 44.0866 18.6717 43.9278 18.3061 43.6103C17.9501 43.2832 17.7721 42.8598 17.7721 42.3402C17.7721 41.8206 17.9645 41.4261 18.3494 41.1567C18.7343 40.8873 19.2635 40.7526 19.937 40.7526H21.4092V40.5505C21.4092 39.8385 21.0099 39.4825 20.2112 39.4825C19.7109 39.4825 19.1913 39.6653 18.6525 40.0309L18.1473 39.3237C18.8112 38.8041 19.5521 38.5443 20.37 38.5443C21.0339 38.5443 21.5583 38.7127 21.9432 39.0495C22.3281 39.3766 22.5205 39.8722 22.5205 40.5361V44ZM21.3948 41.5464H20.1246C19.3068 41.5464 18.8978 41.8014 18.8978 42.3113C18.8978 42.5711 18.9989 42.7732 19.2009 42.9175C19.403 43.0522 19.6868 43.1196 20.0525 43.1196C20.4277 43.1196 20.7453 43.0186 21.0051 42.8165C21.2649 42.6048 21.3948 42.3306 21.3948 41.9938V41.5464ZM24.9956 44H23.8698V36.5093H24.9956V44ZM28.8732 43.0763C29.3639 43.0763 29.7681 42.9127 30.0856 42.5856C30.4127 42.2584 30.5763 41.8351 30.5763 41.3155C30.5763 40.7959 30.4127 40.3725 30.0856 40.0454C29.7681 39.7182 29.3639 39.5546 28.8732 39.5546C28.3825 39.5546 27.9784 39.7182 27.6608 40.0454C27.3433 40.3725 27.1846 40.7959 27.1846 41.3155C27.1846 41.8351 27.3433 42.2536 27.6608 42.5711C27.9784 42.9079 28.3825 43.0763 28.8732 43.0763ZM28.8732 44.0866C28.065 44.0866 27.3914 43.822 26.8526 43.2928C26.3138 42.754 26.0444 42.0948 26.0444 41.3155C26.0444 40.5361 26.3138 39.8818 26.8526 39.3526C27.3914 38.8137 28.065 38.5443 28.8732 38.5443C29.6815 38.5443 30.355 38.8137 30.8938 39.3526C31.4327 39.8818 31.7021 40.5361 31.7021 41.3155C31.7021 42.066 31.4327 42.7203 30.8938 43.2784C30.355 43.8172 29.6815 44.0866 28.8732 44.0866ZM37.7063 38.6309V43.3072C37.7063 44.2309 37.4561 44.9381 36.9558 45.4289C36.4554 45.9196 35.7867 46.1649 34.9496 46.1649C34.1606 46.1649 33.4293 45.91 32.7558 45.4L33.2898 44.5485C33.8286 44.943 34.3627 45.1402 34.8919 45.1402C36.0465 45.1402 36.6238 44.5629 36.6238 43.4082V42.7155C36.4603 43.033 36.2197 43.288 35.9022 43.4804C35.5847 43.6632 35.2334 43.7546 34.8486 43.7546C34.1365 43.7546 33.5496 43.5093 33.0877 43.0186C32.6355 42.5182 32.4094 41.8976 32.4094 41.1567C32.4094 40.4062 32.6355 39.7856 33.0877 39.2948C33.5496 38.7945 34.1365 38.5443 34.8486 38.5443C35.5606 38.5443 36.1379 38.8378 36.5805 39.4247V38.6309H37.7063ZM35.0362 42.7299C35.4884 42.7299 35.8589 42.5759 36.1475 42.268C36.4362 41.9505 36.5805 41.5608 36.5805 41.099C36.5805 40.6275 36.4314 40.2378 36.1331 39.9299C35.8444 39.6124 35.474 39.4536 35.0218 39.4536C34.5695 39.4536 34.2039 39.6172 33.9249 39.9443C33.6554 40.2619 33.5207 40.6467 33.5207 41.099C33.5207 41.5608 33.6603 41.9505 33.9393 42.268C34.2183 42.5759 34.584 42.7299 35.0362 42.7299Z" fill="#E8BE13"/>
</svg>
