<svg width="31" height="55" viewBox="0 0 31 55" fill="none" xmlns="http://www.w3.org/2000/svg">
<g opacity="0.5">
<path d="M1.5 11.7922C1.5 12.4006 1.94736 12.9153 2.68148 12.9153C3.03707 12.9153 3.34678 12.7281 3.62208 12.4825L4.94121 11.3594V22.2508C4.94121 23.9822 5.96211 25 7.70565 25H23.2255C24.9691 25 25.99 23.9822 25.99 22.2508V11.2892L27.3894 12.4825C27.6647 12.7281 27.9744 12.9153 28.33 12.9153C28.9953 12.9153 29.5 12.4942 29.5 11.8273C29.5 11.4296 29.3509 11.1137 29.0526 10.868L25.99 8.23584V3.26392C25.99 2.73748 25.6573 2.39822 25.1411 2.39822H23.5926C23.0879 2.39822 22.7438 2.73748 22.7438 3.26392V5.45157L17.1231 0.631727C16.1366 -0.210576 14.8978 -0.210576 13.8998 0.631727L1.94736 10.868C1.64912 11.1254 1.5 11.4647 1.5 11.7922Z" fill="black"/>
<path d="M18.0642 14C18.6354 14 19 14.3274 19 14.8404V22H12V14.8404C12 14.3274 12.3889 14 12.9479 14H18.0642Z" fill="#F4F4F4"/>
<path d="M1.37855 44V36.9423H2.57649V40.0021H6.06927V36.9423H7.26721V44H6.06927V41.1134H2.57649V44H1.37855ZM11.2955 43.0763C11.7862 43.0763 12.1903 42.9127 12.5079 42.5856C12.835 42.2584 12.9986 41.8351 12.9986 41.3155C12.9986 40.7959 12.835 40.3725 12.5079 40.0454C12.1903 39.7182 11.7862 39.5546 11.2955 39.5546C10.8048 39.5546 10.4006 39.7182 10.0831 40.0454C9.76559 40.3725 9.60683 40.7959 9.60683 41.3155C9.60683 41.8351 9.76559 42.2536 10.0831 42.5711C10.4006 42.9079 10.8048 43.0763 11.2955 43.0763ZM11.2955 44.0866C10.4872 44.0866 9.8137 43.822 9.27487 43.2928C8.73604 42.754 8.46662 42.0948 8.46662 41.3155C8.46662 40.5361 8.73604 39.8818 9.27487 39.3526C9.8137 38.8137 10.4872 38.5443 11.2955 38.5443C12.1037 38.5443 12.7773 38.8137 13.3161 39.3526C13.8549 39.8818 14.1244 40.5361 14.1244 41.3155C14.1244 42.066 13.8549 42.7203 13.3161 43.2784C12.7773 43.8172 12.1037 44.0866 11.2955 44.0866ZM16.2894 44H15.1636V38.6309H16.2894V39.5979C16.453 39.2708 16.6983 39.0158 17.0255 38.833C17.3526 38.6405 17.7038 38.5443 18.0791 38.5443C18.9354 38.5443 19.5128 38.8955 19.811 39.5979C20.3403 38.8955 21.0042 38.5443 21.8028 38.5443C22.4186 38.5443 22.9093 38.732 23.275 39.1072C23.6406 39.4825 23.8234 40.0165 23.8234 40.7093V44H22.6976V41.0557C22.6976 40.0646 22.2839 39.5691 21.4564 39.5691C21.0523 39.5691 20.7107 39.699 20.4317 39.9588C20.1622 40.2089 20.0227 40.5601 20.0131 41.0124V44H18.8729V41.0557C18.8729 40.5457 18.7815 40.1704 18.5987 39.9299C18.4159 39.6893 18.132 39.5691 17.7471 39.5691C17.3334 39.5691 16.987 39.7038 16.7079 39.9732C16.4289 40.233 16.2894 40.6034 16.2894 41.0845V44ZM30.1713 41.8062H25.9569C25.9858 42.1911 26.1638 42.5038 26.4909 42.7443C26.8181 42.9849 27.1981 43.1052 27.6311 43.1052C28.3143 43.1052 28.8243 42.8935 29.161 42.4701L29.8105 43.1773C29.2332 43.7835 28.4779 44.0866 27.5445 44.0866C26.7748 44.0866 26.1301 43.8316 25.6105 43.3216C25.0909 42.8117 24.8311 42.1381 24.8311 41.301C24.8311 40.4832 25.0957 39.8192 25.6249 39.3093C26.1542 38.7993 26.794 38.5443 27.5445 38.5443C28.295 38.5443 28.9205 38.7704 29.4208 39.2227C29.9212 39.6749 30.1713 40.2763 30.1713 41.0268V41.8062ZM29.0456 40.9113C29.0456 40.4784 28.906 40.1368 28.627 39.8866C28.3576 39.6364 28.0064 39.5113 27.5734 39.5113C27.1404 39.5113 26.7603 39.6412 26.4332 39.901C26.1157 40.1608 25.9569 40.4976 25.9569 40.9113H29.0456Z" fill="#2E2D2D"/>
</g>
</svg>
