<svg width="28" height="27" viewBox="0 0 28 27" fill="none" xmlns="http://www.w3.org/2000/svg">
<path d="M5.71866 18.6174C5.45595 21.7808 7.84217 24.364 11.0165 24.364H16.2596C19.828 24.364 22.2798 21.4852 21.6888 17.9606C21.0648 14.2609 17.4965 11.2289 13.742 11.2289C9.67014 11.2289 6.05798 14.5564 5.71866 18.6174Z" stroke="#141415" stroke-width="1.64189" stroke-linecap="round" stroke-linejoin="round"/>
<path d="M12.352 8.49222C13.8633 8.49222 15.0884 7.26706 15.0884 5.75574C15.0884 4.24442 13.8633 3.01926 12.352 3.01926C10.8406 3.01926 9.61548 4.24442 9.61548 5.75574C9.61548 7.26706 10.8406 8.49222 12.352 8.49222Z" stroke="#141415" stroke-width="1.64189" stroke-linecap="round" stroke-linejoin="round"/>
<path d="M19.8281 9.80577C21.0372 9.80577 22.0173 8.82564 22.0173 7.61658C22.0173 6.40753 21.0372 5.4274 19.8281 5.4274C18.619 5.4274 17.6389 6.40753 17.6389 7.61658C17.6389 8.82564 18.619 9.80577 19.8281 9.80577Z" stroke="#141415" stroke-width="1.64189" stroke-linecap="round" stroke-linejoin="round"/>
<path d="M23.8779 14.1841C24.7847 14.1841 25.5198 13.449 25.5198 12.5422C25.5198 11.6354 24.7847 10.9003 23.8779 10.9003C22.9712 10.9003 22.2361 11.6354 22.2361 12.5422C22.2361 13.449 22.9712 14.1841 23.8779 14.1841Z" stroke="#141415" stroke-width="1.64189" stroke-linecap="round" stroke-linejoin="round"/>
<path d="M5.2371 11.9949C6.44615 11.9949 7.42628 11.0147 7.42628 9.80567C7.42628 8.59662 6.44615 7.61649 5.2371 7.61649C4.02804 7.61649 3.04791 8.59662 3.04791 9.80567C3.04791 11.0147 4.02804 11.9949 5.2371 11.9949Z" stroke="#141415" stroke-width="1.64189" stroke-linecap="round" stroke-linejoin="round"/>
</svg>
