<?xml version="1.0" encoding="UTF-8"?>
<svg xmlns="http://www.w3.org/2000/svg" xmlns:xlink="http://www.w3.org/1999/xlink" width="32px" height="55px" viewBox="0 0 32 54" version="1.1">
<g id="surface1">
<path style=" stroke:none;fill-rule:evenodd;fill:rgb(99.607843%,99.607843%,99.607843%);fill-opacity:1;" d="M -0.0546875 -0.0546875 C 5.027344 -0.0546875 10.113281 -0.0546875 15.195312 -0.0546875 C 10.351562 0.710938 6.96875 3.3125 5.046875 7.75 C 3.960938 10.914062 4.214844 13.972656 5.796875 16.929688 C 6.527344 18.027344 7.296875 19.101562 8.105469 20.144531 C 9.53125 21 10.996094 21.773438 12.511719 22.464844 C 17.902344 24.003906 22.5 22.757812 26.308594 18.71875 C 29.355469 14.710938 29.75 10.457031 27.488281 5.960938 C 25.347656 2.542969 22.25 0.539062 18.203125 -0.0546875 C 22.78125 -0.0546875 27.363281 -0.0546875 31.945312 -0.0546875 C 31.945312 17.949219 31.945312 35.945312 31.945312 53.945312 C 21.28125 53.945312 10.613281 53.945312 -0.0546875 53.945312 C -0.0546875 35.945312 -0.0546875 17.949219 -0.0546875 -0.0546875 Z M -0.0546875 -0.0546875 "/>
<path style=" stroke:none;fill-rule:evenodd;fill:rgb(50.196078%,50.196078%,50.196078%);fill-opacity:1;" d="M 15.195312 -0.0546875 C 16.195312 -0.0546875 17.199219 -0.0546875 18.203125 -0.0546875 C 22.25 0.539062 25.347656 2.542969 27.488281 5.960938 C 29.75 10.457031 29.355469 14.710938 26.308594 18.71875 C 22.5 22.757812 17.902344 24.003906 12.511719 22.464844 C 10.996094 21.773438 9.53125 21 8.105469 20.144531 C 7.296875 19.101562 6.527344 18.027344 5.796875 16.929688 C 4.214844 13.972656 3.960938 10.914062 5.046875 7.75 C 6.96875 3.3125 10.351562 0.710938 15.195312 -0.0546875 Z M 15.195312 -0.0546875 "/>
<path style=" stroke:none;fill-rule:evenodd;fill:rgb(81.960784%,81.960784%,81.960784%);fill-opacity:1;" d="M 17.773438 4.695312 C 17.019531 4.558594 16.265625 4.558594 15.515625 4.695312 C 15.527344 4.628906 15.566406 4.574219 15.625 4.535156 C 15.980469 4.515625 16.339844 4.5 16.699219 4.484375 C 17.097656 4.484375 17.457031 4.554688 17.773438 4.695312 Z M 17.773438 4.695312 "/>
<path style=" stroke:none;fill-rule:evenodd;fill:rgb(99.215686%,99.215686%,99.215686%);fill-opacity:1;" d="M 17.773438 4.695312 C 17.925781 4.683594 18.070312 4.71875 18.203125 4.796875 C 18.507812 5.160156 18.902344 5.351562 19.382812 5.378906 C 19.667969 5.675781 19.882812 6.007812 20.027344 6.382812 C 20.160156 7.257812 20.160156 8.136719 20.027344 9.015625 C 20.101562 9.582031 20.101562 10.144531 20.027344 10.703125 C 19.898438 11.027344 19.71875 11.308594 19.488281 11.546875 C 19.289062 11.695312 19.179688 11.90625 19.167969 12.179688 C 19.171875 12.453125 19.066406 12.664062 18.84375 12.8125 C 18.757812 13.148438 18.6875 13.5 18.632812 13.867188 C 18.640625 13.972656 18.605469 14.0625 18.523438 14.132812 C 18.289062 14.230469 18.074219 14.355469 17.878906 14.5 C 17.230469 14.578125 16.585938 14.578125 15.945312 14.5 C 15.742188 14.507812 15.546875 14.472656 15.355469 14.398438 C 14.882812 13.949219 14.652344 13.386719 14.65625 12.710938 C 14.476562 12.441406 14.332031 12.160156 14.226562 11.867188 C 14.238281 11.648438 14.167969 11.472656 14.011719 11.335938 C 13.710938 11.234375 13.566406 11.023438 13.582031 10.703125 C 13.582031 10.390625 13.582031 10.070312 13.582031 9.757812 C 13.582031 9.472656 13.582031 9.195312 13.582031 8.914062 C 13.441406 8.101562 13.441406 7.296875 13.582031 6.484375 C 13.675781 5.988281 13.929688 5.585938 14.335938 5.273438 C 14.636719 4.894531 15.03125 4.699219 15.515625 4.695312 C 16.265625 4.558594 17.019531 4.558594 17.773438 4.695312 Z M 17.773438 4.695312 "/>
<path style=" stroke:none;fill-rule:evenodd;fill:rgb(76.470588%,76.470588%,76.470588%);fill-opacity:1;" d="M 13.582031 6.484375 C 13.441406 7.296875 13.441406 8.101562 13.582031 8.914062 C 13.507812 8.867188 13.453125 8.796875 13.421875 8.703125 C 13.351562 8.035156 13.351562 7.363281 13.421875 6.695312 C 13.453125 6.601562 13.507812 6.53125 13.582031 6.484375 Z M 13.582031 6.484375 "/>
<path style=" stroke:none;fill-rule:evenodd;fill:rgb(66.27451%,66.27451%,66.27451%);fill-opacity:1;" d="M 20.027344 6.382812 C 20.167969 6.777344 20.242188 7.21875 20.242188 7.699219 C 20.242188 8.179688 20.167969 8.621094 20.027344 9.015625 C 20.160156 8.136719 20.160156 7.257812 20.027344 6.382812 Z M 20.027344 6.382812 "/>
<path style=" stroke:none;fill-rule:evenodd;fill:rgb(78.823529%,78.823529%,78.823529%);fill-opacity:1;" d="M 13.582031 9.757812 C 13.582031 10.070312 13.582031 10.390625 13.582031 10.703125 C 13.449219 10.617188 13.378906 10.476562 13.367188 10.28125 C 13.386719 10.144531 13.40625 10 13.421875 9.859375 C 13.464844 9.800781 13.519531 9.765625 13.582031 9.757812 Z M 13.582031 9.757812 "/>
<path style=" stroke:none;fill-rule:evenodd;fill:rgb(69.411765%,69.411765%,69.411765%);fill-opacity:1;" d="M 14.011719 11.335938 C 14.167969 11.472656 14.238281 11.648438 14.226562 11.867188 C 14.039062 11.753906 13.96875 11.578125 14.011719 11.335938 Z M 14.011719 11.335938 "/>
<path style=" stroke:none;fill-rule:evenodd;fill:rgb(81.568627%,81.568627%,81.568627%);fill-opacity:1;" d="M 19.488281 11.546875 C 19.503906 11.835938 19.394531 12.046875 19.167969 12.179688 C 19.179688 11.90625 19.289062 11.695312 19.488281 11.546875 Z M 19.488281 11.546875 "/>
<path style=" stroke:none;fill-rule:evenodd;fill:rgb(75.294118%,75.294118%,75.294118%);fill-opacity:1;" d="M 18.84375 12.8125 C 18.90625 13.21875 18.835938 13.570312 18.632812 13.867188 C 18.6875 13.5 18.757812 13.148438 18.84375 12.8125 Z M 18.84375 12.8125 "/>
<path style=" stroke:none;fill-rule:evenodd;fill:rgb(99.215686%,99.215686%,99.215686%);fill-opacity:1;" d="M 15.410156 15.132812 C 15.660156 15.296875 15.945312 15.367188 16.269531 15.34375 C 17.210938 15.410156 18.070312 15.199219 18.84375 14.710938 C 19.023438 14.574219 19.203125 14.574219 19.382812 14.710938 C 19.417969 14.710938 19.453125 14.710938 19.488281 14.710938 C 19.597656 14.914062 19.773438 15.019531 20.027344 15.03125 C 20.398438 15.210938 20.792969 15.351562 21.207031 15.453125 C 21.652344 15.742188 22.117188 16.007812 22.605469 16.242188 C 22.886719 16.539062 23.101562 16.871094 23.25 17.242188 C 23.289062 17.53125 23.398438 17.777344 23.570312 17.984375 C 23.570312 18.195312 23.570312 18.40625 23.570312 18.617188 C 19.058594 18.617188 14.550781 18.617188 10.039062 18.617188 C 10.0625 18.296875 10.097656 17.980469 10.148438 17.664062 C 10.148438 17.5625 10.148438 17.453125 10.148438 17.351562 C 10.335938 17.226562 10.441406 17.050781 10.46875 16.820312 C 10.738281 16.566406 10.988281 16.285156 11.222656 15.976562 C 11.355469 15.898438 11.496094 15.863281 11.652344 15.875 C 11.882812 15.847656 12.0625 15.742188 12.1875 15.554688 C 12.929688 15.238281 13.664062 14.886719 14.390625 14.5 C 14.695312 14.789062 15.035156 15 15.410156 15.132812 Z M 15.410156 15.132812 "/>
<path style=" stroke:none;fill-rule:evenodd;fill:rgb(85.490196%,85.490196%,85.490196%);fill-opacity:1;" d="M 15.945312 14.5 C 16.585938 14.578125 17.230469 14.578125 17.878906 14.5 C 17.835938 14.578125 17.761719 14.628906 17.664062 14.660156 C 17.378906 14.679688 17.089844 14.695312 16.804688 14.710938 C 16.472656 14.710938 16.1875 14.640625 15.945312 14.5 Z M 15.945312 14.5 "/>
<path style=" stroke:none;fill-rule:evenodd;fill:rgb(76.470588%,76.470588%,76.470588%);fill-opacity:1;" d="M 19.382812 14.710938 C 19.203125 14.574219 19.023438 14.574219 18.84375 14.710938 C 18.875 14.589844 18.964844 14.519531 19.113281 14.5 C 19.261719 14.519531 19.351562 14.589844 19.382812 14.710938 Z M 19.382812 14.710938 "/>
<path style=" stroke:none;fill-rule:evenodd;fill:rgb(75.294118%,75.294118%,75.294118%);fill-opacity:1;" d="M 19.488281 14.710938 C 19.742188 14.722656 19.921875 14.828125 20.027344 15.03125 C 19.773438 15.019531 19.597656 14.914062 19.488281 14.710938 Z M 19.488281 14.710938 "/>
<path style=" stroke:none;fill-rule:evenodd;fill:rgb(69.803922%,69.803922%,69.803922%);fill-opacity:1;" d="M 15.410156 15.132812 C 15.730469 15.113281 16.015625 15.183594 16.269531 15.34375 C 15.945312 15.367188 15.660156 15.296875 15.410156 15.132812 Z M 15.410156 15.132812 "/>
<path style=" stroke:none;fill-rule:evenodd;fill:rgb(81.176471%,81.176471%,81.176471%);fill-opacity:1;" d="M 12.1875 15.554688 C 12.0625 15.742188 11.882812 15.847656 11.652344 15.875 C 11.757812 15.671875 11.9375 15.566406 12.1875 15.554688 Z M 12.1875 15.554688 "/>
<path style=" stroke:none;fill-rule:evenodd;fill:rgb(69.803922%,69.803922%,69.803922%);fill-opacity:1;" d="M 10.46875 16.820312 C 10.441406 17.050781 10.335938 17.226562 10.148438 17.351562 C 10.15625 17.101562 10.265625 16.925781 10.46875 16.820312 Z M 10.46875 16.820312 "/>
<path style=" stroke:none;fill-rule:evenodd;fill:rgb(77.647059%,77.647059%,77.647059%);fill-opacity:1;" d="M 23.25 17.242188 C 23.496094 17.410156 23.605469 17.65625 23.570312 17.984375 C 23.398438 17.777344 23.289062 17.53125 23.25 17.242188 Z M 23.25 17.242188 "/>
<path style=" stroke:none;fill-rule:evenodd;fill:rgb(86.666667%,86.666667%,86.666667%);fill-opacity:1;" d="M 10.148438 17.664062 C 10.097656 17.980469 10.0625 18.296875 10.039062 18.617188 C 14.550781 18.617188 19.058594 18.617188 23.570312 18.617188 C 19.042969 18.71875 14.496094 18.753906 9.933594 18.71875 C 9.914062 18.4375 9.933594 18.15625 9.988281 17.875 C 10.015625 17.78125 10.070312 17.710938 10.148438 17.664062 Z M 10.148438 17.664062 "/>
<path style=" stroke:none;fill-rule:evenodd;fill:rgb(59.215686%,59.215686%,59.215686%);fill-opacity:1;" d="M 19.058594 43.085938 C 18.703125 43.085938 18.34375 43.085938 17.988281 43.085938 C 18.023438 41.625 17.984375 40.183594 17.878906 38.757812 C 17.664062 38.757812 17.449219 38.757812 17.234375 38.757812 C 17.234375 38.445312 17.234375 38.125 17.234375 37.8125 C 17.449219 37.8125 17.664062 37.8125 17.878906 37.8125 C 17.9375 36.050781 18.832031 35.398438 20.5625 35.859375 C 20.707031 35.964844 20.851562 36.070312 20.992188 36.175781 C 20.792969 36.414062 20.628906 36.675781 20.511719 36.96875 C 19.425781 36.359375 18.941406 36.675781 19.058594 37.914062 C 19.527344 37.914062 19.992188 37.914062 20.457031 37.914062 C 20.457031 38.199219 20.457031 38.476562 20.457031 38.757812 C 19.992188 38.757812 19.527344 38.757812 19.058594 38.757812 C 19.058594 40.203125 19.058594 41.640625 19.058594 43.085938 Z M 19.058594 43.085938 "/>
<path style=" stroke:none;fill-rule:evenodd;fill:rgb(60%,60%,60%);fill-opacity:1;" d="M 21.636719 35.59375 C 22.609375 35.6875 22.824219 36.128906 22.28125 36.914062 C 21.496094 37.089844 21.15625 36.789062 21.261719 36.015625 C 21.378906 35.863281 21.503906 35.722656 21.636719 35.59375 Z M 21.636719 35.59375 "/>
<path style=" stroke:none;fill-rule:evenodd;fill:rgb(83.529412%,83.529412%,83.529412%);fill-opacity:1;" d="M 23.894531 35.804688 C 23.894531 38.234375 23.894531 40.65625 23.894531 43.085938 C 24.25 43.085938 24.609375 43.085938 24.964844 43.085938 C 24.59375 43.1875 24.199219 43.222656 23.785156 43.1875 C 23.75 40.710938 23.785156 38.25 23.894531 35.804688 Z M 23.894531 35.804688 "/>
<path style=" stroke:none;fill-rule:evenodd;fill:rgb(58.431373%,58.823529%,58.431373%);fill-opacity:1;" d="M 23.894531 35.804688 C 24.25 35.804688 24.609375 35.804688 24.964844 35.804688 C 24.964844 38.234375 24.964844 40.65625 24.964844 43.085938 C 24.609375 43.085938 24.25 43.085938 23.894531 43.085938 C 23.894531 40.65625 23.894531 38.234375 23.894531 35.804688 Z M 23.894531 35.804688 "/>
<path style=" stroke:none;fill-rule:evenodd;fill:rgb(69.411765%,69.411765%,69.411765%);fill-opacity:1;" d="M 1.128906 36.226562 C 1.128906 38.515625 1.128906 40.796875 1.128906 43.085938 C 1.484375 43.085938 1.84375 43.085938 2.203125 43.085938 C 2.203125 43.117188 2.203125 43.15625 2.203125 43.1875 C 1.808594 43.1875 1.414062 43.1875 1.019531 43.1875 C 0.984375 40.851562 1.019531 38.53125 1.128906 36.226562 Z M 1.128906 36.226562 "/>
<path style=" stroke:none;fill-rule:evenodd;fill:rgb(58.823529%,58.823529%,58.823529%);fill-opacity:1;" d="M 1.128906 36.226562 C 2.203125 36.210938 3.277344 36.226562 4.347656 36.28125 C 5.75 36.460938 6.464844 37.234375 6.496094 38.601562 C 6.488281 40.332031 5.59375 41.15625 3.8125 41.078125 C 3.273438 41.078125 2.738281 41.078125 2.203125 41.078125 C 2.203125 41.746094 2.203125 42.417969 2.203125 43.085938 C 1.84375 43.085938 1.484375 43.085938 1.128906 43.085938 C 1.128906 40.796875 1.128906 38.515625 1.128906 36.226562 Z M 1.128906 36.226562 "/>
<path style=" stroke:none;fill-rule:evenodd;fill:rgb(98.823529%,98.823529%,98.823529%);fill-opacity:1;" d="M 2.203125 37.28125 C 3.113281 37.222656 4.007812 37.3125 4.886719 37.546875 C 5.238281 37.8125 5.378906 38.164062 5.316406 38.601562 C 5.355469 39.261719 5.070312 39.71875 4.457031 39.972656 C 3.707031 40.023438 2.953125 40.042969 2.203125 40.023438 C 2.203125 39.109375 2.203125 38.199219 2.203125 37.28125 Z M 2.203125 37.28125 "/>
<path style=" stroke:none;fill-rule:evenodd;fill:rgb(59.215686%,59.215686%,59.215686%);fill-opacity:1;" d="M 8.75 40.34375 C 8.644531 41.238281 8.609375 42.152344 8.644531 43.085938 C 8.285156 43.085938 7.929688 43.085938 7.570312 43.085938 C 7.570312 41.363281 7.570312 39.636719 7.570312 37.914062 C 7.929688 37.914062 8.285156 37.914062 8.644531 37.914062 C 8.625 38.234375 8.644531 38.550781 8.699219 38.867188 C 9.113281 38.226562 9.703125 37.875 10.46875 37.8125 C 10.488281 38.164062 10.46875 38.515625 10.417969 38.867188 C 9.429688 38.902344 8.875 39.394531 8.75 40.34375 Z M 8.75 40.34375 "/>
<path style=" stroke:none;fill-rule:evenodd;fill:rgb(59.215686%,59.215686%,59.215686%);fill-opacity:1;" d="M 13.046875 37.8125 C 15.574219 37.675781 16.738281 38.835938 16.535156 41.289062 C 15.601562 43.183594 14.152344 43.691406 12.1875 42.820312 C 10.984375 41.832031 10.683594 40.617188 11.273438 39.179688 C 11.722656 38.53125 12.3125 38.074219 13.046875 37.8125 Z M 13.046875 37.8125 "/>
<path style=" stroke:none;fill-rule:evenodd;fill:rgb(59.607843%,59.607843%,59.607843%);fill-opacity:1;" d="M 27.972656 37.8125 C 30.339844 37.605469 31.484375 38.660156 31.410156 40.976562 C 30.011719 40.976562 28.617188 40.976562 27.222656 40.976562 C 27.277344 41.574219 27.597656 41.980469 28.1875 42.1875 C 28.988281 42.363281 29.707031 42.203125 30.335938 41.710938 C 30.585938 41.890625 30.800781 42.101562 30.980469 42.34375 C 30.398438 42.933594 29.679688 43.214844 28.832031 43.1875 C 26.757812 42.996094 25.847656 41.871094 26.09375 39.8125 C 26.410156 38.851562 27.039062 38.183594 27.972656 37.8125 Z M 27.972656 37.8125 "/>
<path style=" stroke:none;fill-rule:evenodd;fill:rgb(58.431373%,58.823529%,58.431373%);fill-opacity:1;" d="M 22.390625 37.914062 C 22.390625 39.636719 22.390625 41.363281 22.390625 43.085938 C 22.03125 43.085938 21.671875 43.085938 21.316406 43.085938 C 21.316406 41.363281 21.316406 39.636719 21.316406 37.914062 C 21.671875 37.914062 22.03125 37.914062 22.390625 37.914062 Z M 22.390625 37.914062 "/>
<path style=" stroke:none;fill-rule:evenodd;fill:rgb(78.823529%,78.823529%,78.823529%);fill-opacity:1;" d="M 22.390625 37.914062 C 22.496094 39.65625 22.53125 41.414062 22.496094 43.1875 C 22.082031 43.222656 21.6875 43.1875 21.316406 43.085938 C 21.671875 43.085938 22.03125 43.085938 22.390625 43.085938 C 22.390625 41.363281 22.390625 39.636719 22.390625 37.914062 Z M 22.390625 37.914062 "/>
<path style=" stroke:none;fill-rule:evenodd;fill:rgb(98.823529%,98.823529%,98.823529%);fill-opacity:1;" d="M 28.1875 38.757812 C 28.8125 38.683594 29.382812 38.804688 29.90625 39.128906 C 30.152344 39.417969 30.261719 39.753906 30.226562 40.132812 C 29.226562 40.132812 28.222656 40.132812 27.222656 40.132812 C 27.203125 39.917969 27.222656 39.707031 27.273438 39.5 C 27.539062 39.1875 27.839844 38.941406 28.1875 38.757812 Z M 28.1875 38.757812 "/>
<path style=" stroke:none;fill-rule:evenodd;fill:rgb(98.823529%,98.823529%,98.823529%);fill-opacity:1;" d="M 13.261719 38.757812 C 14.855469 38.6875 15.585938 39.425781 15.464844 40.976562 C 14.945312 42.203125 14.066406 42.539062 12.832031 41.976562 C 12.09375 41.359375 11.898438 40.605469 12.242188 39.710938 C 12.5 39.296875 12.839844 38.980469 13.261719 38.757812 Z M 13.261719 38.757812 "/>
<path style=" stroke:none;fill-rule:evenodd;fill:rgb(74.509804%,74.509804%,74.509804%);fill-opacity:1;" d="M 17.878906 38.757812 C 17.984375 40.183594 18.023438 41.625 17.988281 43.085938 C 18.34375 43.085938 18.703125 43.085938 19.058594 43.085938 C 18.6875 43.1875 18.292969 43.222656 17.878906 43.1875 C 17.878906 41.710938 17.878906 40.234375 17.878906 38.757812 Z M 17.878906 38.757812 "/>
<path style=" stroke:none;fill-rule:evenodd;fill:rgb(81.568627%,81.568627%,81.568627%);fill-opacity:1;" d="M 8.75 40.34375 C 8.75 41.289062 8.75 42.242188 8.75 43.1875 C 8.335938 43.222656 7.941406 43.1875 7.570312 43.085938 C 7.929688 43.085938 8.285156 43.085938 8.644531 43.085938 C 8.609375 42.152344 8.644531 41.238281 8.75 40.34375 Z M 8.75 40.34375 "/>
<path style=" stroke:none;fill-rule:evenodd;fill:rgb(85.882353%,85.882353%,85.882353%);fill-opacity:1;" d="M 3.8125 41.078125 C 3.332031 41.183594 2.832031 41.21875 2.308594 41.1875 C 2.34375 41.875 2.308594 42.542969 2.203125 43.1875 C 2.203125 43.15625 2.203125 43.117188 2.203125 43.085938 C 2.203125 42.417969 2.203125 41.746094 2.203125 41.078125 C 2.738281 41.078125 3.273438 41.078125 3.8125 41.078125 Z M 3.8125 41.078125 "/>
</g>
</svg>
