<svg width="16" height="11" viewBox="0 0 16 11" fill="none" xmlns="http://www.w3.org/2000/svg">
<path fill-rule="evenodd" clip-rule="evenodd" d="M14.9761 0.690277H14.0676C13.5659 0.690277 13.1591 1.09701 13.1591 1.59874V9.47209C13.1591 9.97382 13.5659 10.3806 14.0676 10.3806H14.9761C15.4778 10.3806 15.8845 9.97382 15.8845 9.47209V1.59874C15.8845 1.09701 15.4778 0.690277 14.9761 0.690277ZM9.82808 2.81002H10.7365C11.2383 2.81002 11.645 3.21675 11.645 3.71848V9.47208C11.645 9.97381 11.2383 10.3805 10.7365 10.3805H9.82808C9.32635 10.3805 8.91962 9.97381 8.91962 9.47208V3.71848C8.91962 3.21675 9.32635 2.81002 9.82808 2.81002ZM6.49707 4.92977H5.5886C5.08687 4.92977 4.68014 5.33651 4.68014 5.83824V9.47209C4.68014 9.97382 5.08687 10.3806 5.5886 10.3806H6.49707C6.9988 10.3806 7.40553 9.97382 7.40553 9.47209V5.83824C7.40553 5.33651 6.9988 4.92977 6.49707 4.92977ZM2.25757 6.74671H1.34911C0.847376 6.74671 0.440643 7.15344 0.440643 7.65518V9.4721C0.440643 9.97383 0.847376 10.3806 1.34911 10.3806H2.25757C2.7593 10.3806 3.16603 9.97383 3.16603 9.4721V7.65518C3.16603 7.15344 2.7593 6.74671 2.25757 6.74671Z" fill="black"/>
</svg>
