<svg width="15" height="11" viewBox="0 0 15 11" fill="none" xmlns="http://www.w3.org/2000/svg">
<path fill-rule="evenodd" clip-rule="evenodd" d="M7.3921 2.46042C9.41319 2.46051 11.357 3.23644 12.8218 4.62783C12.9321 4.73525 13.1084 4.7339 13.217 4.6248L14.2714 3.56159C14.3264 3.50626 14.357 3.4313 14.3566 3.35331C14.3561 3.27532 14.3246 3.20072 14.2689 3.14603C10.4244 -0.535271 4.3592 -0.535271 0.514658 3.14603C0.458968 3.20068 0.427369 3.27525 0.426856 3.35325C0.426342 3.43124 0.456956 3.50622 0.511922 3.56159L1.5666 4.6248C1.67516 4.73406 1.8516 4.73542 1.96184 4.62783C3.42679 3.23635 5.37082 2.46042 7.3921 2.46042ZM7.3921 5.91948C8.50256 5.91941 9.57339 6.33181 10.3965 7.07655C10.5078 7.18225 10.6832 7.17995 10.7918 7.07139L11.8449 6.00818C11.9004 5.95242 11.9311 5.87676 11.9303 5.79815C11.9295 5.71953 11.8972 5.64452 11.8407 5.58989C9.33406 3.26022 5.45227 3.26022 2.94567 5.58989C2.88905 5.64452 2.85675 5.71957 2.856 5.79821C2.85526 5.87685 2.88614 5.9525 2.94172 6.00818L3.99457 7.07139C4.1031 7.17995 4.27848 7.18225 4.38981 7.07655C5.2124 6.33231 6.28238 5.91994 7.3921 5.91948ZM9.50175 8.24682C9.50337 8.32566 9.47235 8.40166 9.41602 8.45689L7.59428 10.2938C7.54088 10.3478 7.46807 10.3782 7.3921 10.3782C7.31613 10.3782 7.24332 10.3478 7.18992 10.2938L5.36787 8.45689C5.31159 8.40162 5.28062 8.32559 5.28229 8.24676C5.28396 8.16792 5.31812 8.09327 5.37669 8.04042C6.54012 7.05722 8.24408 7.05722 9.40751 8.04042C9.46604 8.09331 9.50014 8.16799 9.50175 8.24682Z" fill="black"/>
</svg>
